<svg width="20" height="21" viewBox="0 0 20 21" fill="none" xmlns="http://www.w3.org/2000/svg">
<g clip-path="url(#clip0_149_86)">
<path d="M10.0007 0.897418C7.83984 0.866308 5.73995 1.61375 4.08474 3.00316C2.42953 4.39257 1.32952 6.33118 0.985731 8.46472C0.641938 10.5983 1.07732 12.7843 2.21231 14.6233C3.34729 16.4623 5.10611 17.8315 7.16734 18.4808C7.58401 18.5641 7.91734 18.1058 7.91734 17.7308V16.5224C5.41734 17.0641 4.62568 15.3141 4.62568 15.3141C4.46312 14.7866 4.14329 14.3214 3.70901 13.9808C2.87568 13.3974 3.75068 13.4391 3.75068 13.4391C4.02894 13.4613 4.29818 13.5482 4.5369 13.6929C4.77563 13.8375 4.97725 14.036 5.12568 14.2724C5.83401 15.4808 7.41734 15.3558 7.91734 15.1474C7.87358 14.7331 7.94571 14.3148 8.12568 13.9391C5.29234 13.4391 3.75068 11.7724 3.75068 9.52242C3.72087 8.34895 4.15506 7.21107 4.95901 6.35575C4.73505 5.94201 4.62833 5.47497 4.65035 5.00502C4.67238 4.53507 4.82233 4.08006 5.08401 3.68908C5.58724 3.69898 6.08318 3.81122 6.54163 4.01895C7.00009 4.22669 7.41146 4.52558 7.75068 4.89742C8.4742 4.65053 9.23666 4.53758 10.0007 4.56408C10.7614 4.5405 11.5211 4.63897 12.2507 4.85575C12.595 4.49337 13.0083 4.20349 13.4662 4.00313C13.9241 3.80278 14.4175 3.69601 14.9173 3.68908C15.1733 4.08124 15.3232 4.53306 15.3524 5.00044C15.3816 5.46781 15.2891 5.93478 15.084 6.35575C15.8728 7.21766 16.2917 8.35477 16.2507 9.52242C16.2507 11.7724 14.709 13.4391 11.8757 13.9391C12.0556 14.3148 12.1278 14.7331 12.084 15.1474V17.7308C12.0839 17.8328 12.1045 17.9339 12.1448 18.0277C12.1851 18.1215 12.2441 18.2062 12.3182 18.2764C12.3923 18.3466 12.48 18.4009 12.5759 18.4361C12.6717 18.4712 12.7737 18.4864 12.8757 18.4808C14.8878 17.7826 16.5889 16.3966 17.6791 14.5669C18.7694 12.7373 19.1787 10.5816 18.835 8.47965C18.4914 6.37774 17.4167 4.46462 15.8005 3.07751C14.1844 1.6904 12.1304 0.918339 10.0007 0.897418Z" fill="url(#paint0_linear_149_86)"/>
</g>
<defs>
<linearGradient id="paint0_linear_149_86" x1="14.1257" y1="5.11826" x2="4.12568" y2="16.0433" gradientUnits="userSpaceOnUse">
<stop stop-color="#4330B5"/>
<stop offset="1" stop-color="#7326AF"/>
</linearGradient>
<clipPath id="clip0_149_86">
<rect width="20" height="20" fill="white" transform="translate(0 0.105469)"/>
</clipPath>
</defs>
</svg>
